<mxfile host="app.diagrams.net" modified="2021-02-03T07:07:02.196Z" agent="5.0 (Windows NT 10.0; Win64; x64) AppleWebKit/537.36 (KHTML, like Gecko) Chrome/88.0.4324.96 Safari/537.36 Edg/88.0.705.56" etag="JCVmGljhMWrhVfpa7Kvi" version="14.2.9" type="github">
  <diagram id="ucYUEu3V5Jr4zlLHICXD" name="Page-1">
    <mxGraphModel dx="2062" dy="1132" grid="1" gridSize="10" guides="1" tooltips="1" connect="1" arrows="1" fold="1" page="1" pageScale="1" pageWidth="827" pageHeight="1169" math="0" shadow="0">
      <root>
        <object label="" id="0">
          <mxCell />
        </object>
        <mxCell id="1" parent="0" />
        <mxCell id="13GAQ_Y66KuqtZKfpamC-32" value="" style="edgeStyle=orthogonalEdgeStyle;rounded=0;orthogonalLoop=1;jettySize=auto;html=1;" edge="1" parent="1" source="13GAQ_Y66KuqtZKfpamC-1" target="13GAQ_Y66KuqtZKfpamC-31">
          <mxGeometry relative="1" as="geometry" />
        </mxCell>
        <mxCell id="13GAQ_Y66KuqtZKfpamC-1" value="民警入监" style="rounded=0;whiteSpace=wrap;html=1;" vertex="1" parent="1">
          <mxGeometry x="190" y="110" width="120" height="60" as="geometry" />
        </mxCell>
        <mxCell id="13GAQ_Y66KuqtZKfpamC-6" style="edgeStyle=orthogonalEdgeStyle;rounded=0;orthogonalLoop=1;jettySize=auto;html=1;" edge="1" parent="1" source="13GAQ_Y66KuqtZKfpamC-2" target="13GAQ_Y66KuqtZKfpamC-7">
          <mxGeometry relative="1" as="geometry">
            <mxPoint x="250" y="370" as="targetPoint" />
          </mxGeometry>
        </mxCell>
        <mxCell id="13GAQ_Y66KuqtZKfpamC-2" value="不发卡" style="rounded=0;whiteSpace=wrap;html=1;" vertex="1" parent="1">
          <mxGeometry x="190" y="260" width="120" height="40" as="geometry" />
        </mxCell>
        <mxCell id="13GAQ_Y66KuqtZKfpamC-8" style="edgeStyle=orthogonalEdgeStyle;rounded=0;orthogonalLoop=1;jettySize=auto;html=1;" edge="1" parent="1" source="13GAQ_Y66KuqtZKfpamC-9">
          <mxGeometry relative="1" as="geometry">
            <mxPoint x="250" y="480" as="targetPoint" />
          </mxGeometry>
        </mxCell>
        <mxCell id="13GAQ_Y66KuqtZKfpamC-7" value="旋转闸刷脸通过" style="rounded=0;whiteSpace=wrap;html=1;" vertex="1" parent="1">
          <mxGeometry x="190" y="340" width="120" height="30" as="geometry" />
        </mxCell>
        <mxCell id="13GAQ_Y66KuqtZKfpamC-9" value="三辊闸刷脸通过" style="whiteSpace=wrap;html=1;" vertex="1" parent="1">
          <mxGeometry x="190" y="400" width="120" height="40" as="geometry" />
        </mxCell>
        <mxCell id="13GAQ_Y66KuqtZKfpamC-10" style="edgeStyle=orthogonalEdgeStyle;rounded=0;orthogonalLoop=1;jettySize=auto;html=1;" edge="1" parent="1" source="13GAQ_Y66KuqtZKfpamC-7" target="13GAQ_Y66KuqtZKfpamC-9">
          <mxGeometry relative="1" as="geometry">
            <mxPoint x="250" y="480" as="targetPoint" />
            <mxPoint x="250" y="370" as="sourcePoint" />
          </mxGeometry>
        </mxCell>
        <mxCell id="13GAQ_Y66KuqtZKfpamC-20" style="edgeStyle=orthogonalEdgeStyle;rounded=0;orthogonalLoop=1;jettySize=auto;html=1;entryX=0.5;entryY=0;entryDx=0;entryDy=0;" edge="1" parent="1" source="13GAQ_Y66KuqtZKfpamC-11" target="13GAQ_Y66KuqtZKfpamC-19">
          <mxGeometry relative="1" as="geometry" />
        </mxCell>
        <mxCell id="13GAQ_Y66KuqtZKfpamC-11" value="铁门刷脸通过" style="whiteSpace=wrap;html=1;" vertex="1" parent="1">
          <mxGeometry x="190" y="470" width="120" height="30" as="geometry" />
        </mxCell>
        <mxCell id="13GAQ_Y66KuqtZKfpamC-15" value="" style="edgeStyle=orthogonalEdgeStyle;rounded=0;orthogonalLoop=1;jettySize=auto;html=1;" edge="1" parent="1" source="13GAQ_Y66KuqtZKfpamC-12" target="13GAQ_Y66KuqtZKfpamC-14">
          <mxGeometry relative="1" as="geometry" />
        </mxCell>
        <mxCell id="13GAQ_Y66KuqtZKfpamC-12" value="进入监内" style="whiteSpace=wrap;html=1;" vertex="1" parent="1">
          <mxGeometry x="190" y="610" width="120" height="40" as="geometry" />
        </mxCell>
        <mxCell id="13GAQ_Y66KuqtZKfpamC-26" value="" style="edgeStyle=orthogonalEdgeStyle;rounded=0;orthogonalLoop=1;jettySize=auto;html=1;" edge="1" parent="1" source="13GAQ_Y66KuqtZKfpamC-14" target="13GAQ_Y66KuqtZKfpamC-16">
          <mxGeometry relative="1" as="geometry" />
        </mxCell>
        <mxCell id="13GAQ_Y66KuqtZKfpamC-14" value="出监" style="whiteSpace=wrap;html=1;" vertex="1" parent="1">
          <mxGeometry x="370" y="610" width="120" height="40" as="geometry" />
        </mxCell>
        <mxCell id="13GAQ_Y66KuqtZKfpamC-30" value="" style="edgeStyle=orthogonalEdgeStyle;rounded=0;orthogonalLoop=1;jettySize=auto;html=1;" edge="1" parent="1" source="13GAQ_Y66KuqtZKfpamC-16" target="13GAQ_Y66KuqtZKfpamC-27">
          <mxGeometry relative="1" as="geometry" />
        </mxCell>
        <mxCell id="13GAQ_Y66KuqtZKfpamC-16" value="铁门刷脸通过" style="whiteSpace=wrap;html=1;" vertex="1" parent="1">
          <mxGeometry x="370" y="540" width="120" height="35" as="geometry" />
        </mxCell>
        <mxCell id="13GAQ_Y66KuqtZKfpamC-23" style="edgeStyle=orthogonalEdgeStyle;rounded=0;orthogonalLoop=1;jettySize=auto;html=1;" edge="1" parent="1" source="13GAQ_Y66KuqtZKfpamC-19">
          <mxGeometry relative="1" as="geometry">
            <mxPoint x="250" y="600" as="targetPoint" />
          </mxGeometry>
        </mxCell>
        <mxCell id="13GAQ_Y66KuqtZKfpamC-19" value="过通道" style="whiteSpace=wrap;html=1;" vertex="1" parent="1">
          <mxGeometry x="190" y="540" width="120" height="30" as="geometry" />
        </mxCell>
        <mxCell id="13GAQ_Y66KuqtZKfpamC-29" value="" style="edgeStyle=orthogonalEdgeStyle;rounded=0;orthogonalLoop=1;jettySize=auto;html=1;" edge="1" parent="1" source="13GAQ_Y66KuqtZKfpamC-27" target="13GAQ_Y66KuqtZKfpamC-28">
          <mxGeometry relative="1" as="geometry" />
        </mxCell>
        <mxCell id="13GAQ_Y66KuqtZKfpamC-27" value="通道三辊闸刷脸通过" style="whiteSpace=wrap;html=1;" vertex="1" parent="1">
          <mxGeometry x="370" y="480" width="120" height="40" as="geometry" />
        </mxCell>
        <mxCell id="13GAQ_Y66KuqtZKfpamC-37" value="" style="edgeStyle=orthogonalEdgeStyle;rounded=0;orthogonalLoop=1;jettySize=auto;html=1;" edge="1" parent="1" source="13GAQ_Y66KuqtZKfpamC-28" target="13GAQ_Y66KuqtZKfpamC-36">
          <mxGeometry relative="1" as="geometry" />
        </mxCell>
        <mxCell id="13GAQ_Y66KuqtZKfpamC-28" value="值班室民警开通道门" style="whiteSpace=wrap;html=1;" vertex="1" parent="1">
          <mxGeometry x="370" y="420" width="120" height="40" as="geometry" />
        </mxCell>
        <mxCell id="13GAQ_Y66KuqtZKfpamC-35" style="edgeStyle=orthogonalEdgeStyle;rounded=0;orthogonalLoop=1;jettySize=auto;html=1;" edge="1" parent="1" source="13GAQ_Y66KuqtZKfpamC-31">
          <mxGeometry relative="1" as="geometry">
            <mxPoint x="250" y="250" as="targetPoint" />
          </mxGeometry>
        </mxCell>
        <mxCell id="13GAQ_Y66KuqtZKfpamC-31" value="武警开外门" style="whiteSpace=wrap;html=1;" vertex="1" parent="1">
          <mxGeometry x="190" y="200" width="120" height="40" as="geometry" />
        </mxCell>
        <mxCell id="13GAQ_Y66KuqtZKfpamC-39" value="" style="edgeStyle=orthogonalEdgeStyle;rounded=0;orthogonalLoop=1;jettySize=auto;html=1;" edge="1" parent="1" source="13GAQ_Y66KuqtZKfpamC-36" target="13GAQ_Y66KuqtZKfpamC-38">
          <mxGeometry relative="1" as="geometry" />
        </mxCell>
        <mxCell id="13GAQ_Y66KuqtZKfpamC-36" value="三辊闸刷脸通过" style="whiteSpace=wrap;html=1;" vertex="1" parent="1">
          <mxGeometry x="370" y="350" width="120" height="40" as="geometry" />
        </mxCell>
        <mxCell id="13GAQ_Y66KuqtZKfpamC-50" style="edgeStyle=orthogonalEdgeStyle;rounded=0;orthogonalLoop=1;jettySize=auto;html=1;entryX=0.5;entryY=1;entryDx=0;entryDy=0;" edge="1" parent="1" source="13GAQ_Y66KuqtZKfpamC-38" target="13GAQ_Y66KuqtZKfpamC-41">
          <mxGeometry relative="1" as="geometry" />
        </mxCell>
        <mxCell id="13GAQ_Y66KuqtZKfpamC-38" value="旋转闸刷脸通过" style="rounded=0;whiteSpace=wrap;html=1;" vertex="1" parent="1">
          <mxGeometry x="370" y="300" width="120" height="30" as="geometry" />
        </mxCell>
        <mxCell id="13GAQ_Y66KuqtZKfpamC-44" value="" style="edgeStyle=orthogonalEdgeStyle;rounded=0;orthogonalLoop=1;jettySize=auto;html=1;" edge="1" parent="1" source="13GAQ_Y66KuqtZKfpamC-41" target="13GAQ_Y66KuqtZKfpamC-43">
          <mxGeometry relative="1" as="geometry" />
        </mxCell>
        <mxCell id="13GAQ_Y66KuqtZKfpamC-41" value="武警开外三辊闸" style="whiteSpace=wrap;html=1;" vertex="1" parent="1">
          <mxGeometry x="370" y="250" width="120" height="30" as="geometry" />
        </mxCell>
        <mxCell id="13GAQ_Y66KuqtZKfpamC-47" value="" style="edgeStyle=orthogonalEdgeStyle;rounded=0;orthogonalLoop=1;jettySize=auto;html=1;" edge="1" parent="1" source="13GAQ_Y66KuqtZKfpamC-43" target="13GAQ_Y66KuqtZKfpamC-45">
          <mxGeometry relative="1" as="geometry" />
        </mxCell>
        <mxCell id="13GAQ_Y66KuqtZKfpamC-43" value="武警开外门" style="whiteSpace=wrap;html=1;" vertex="1" parent="1">
          <mxGeometry x="370" y="190" width="120" height="40" as="geometry" />
        </mxCell>
        <mxCell id="13GAQ_Y66KuqtZKfpamC-45" value="民警出监" style="whiteSpace=wrap;html=1;" vertex="1" parent="1">
          <mxGeometry x="370" y="110" width="120" height="60" as="geometry" />
        </mxCell>
      </root>
    </mxGraphModel>
  </diagram>
</mxfile>
